<svg version="1" xmlns="http://www.w3.org/2000/svg" width="341.333" height="341.333" viewBox="0 0 256.000000 256.000000"><path d="M163.4 7.3c.1 4.8.3 5 11.1 12.7 4.2 3 8.2 6 8.8 6.5.7.6 3.9 3 7.3 5.3l6.1 4.3v78.5c0 43.1-.3 78.3-.6 78.2-.4-.2-4.7-3.2-9.7-6.8l-9-6.5v-63.8l.1-63.7-5.5-3.7c-3-2.1-5.7-4-6-4.3-.3-.4-3.4-2.6-7-5-3.6-2.5-7.7-5.4-9.1-6.5-1.4-1.1-3.6-2.7-4.9-3.5-1.2-.8-3.7-2.6-5.6-4-1.8-1.4-4.9-3.6-6.9-5s-4.2-3.1-5-3.8c-.7-.6-1.6-1.2-2-1.2-.3 0-1.1-.5-1.8-1-5-4.2-13.2-10-14.1-10-2 0-.6 8.5 1.6 10.1 1.2.8 4.2 3 6.9 4.9 2.6 1.9 5.7 4.2 6.9 5 1.2.8 3.4 2.5 4.8 3.7 1.5 1.3 3.1 2.3 3.6 2.3s1.6.8 2.5 1.8c.9 1.1 2.6 2.4 3.9 3.1l2.2 1.2v166.5l2.3 2c1.2 1 3.5 2.8 5.2 3.8 1.6 1.1 3.4 2.3 4 2.8 8.3 6.8 22.9 16.7 23.5 15.9.3-.5.5-9.3.4-19.5 0-10.2.1-18.6.1-18.6.1 0 2 1.3 4.1 3 2.2 1.6 4.4 3.3 4.9 3.7.6.5 3.9 2.8 7.5 5.3 6.2 4.3 7.5 5.2 12.2 9.2 1.1 1 2.9 2 3.9 2.3 1.1.4 1.9 1.1 1.9 1.6s.5.9 1.1.9c.6 0 1.6.6 2.3 1.2.7.7 2.5 2.2 4.1 3.3 1.5 1.1 4 3.1 5.6 4.3 1.6 1.3 2.9 2.1 2.9 1.7 0-.3.8.1 1.8 1.1 1.6 1.7 1.7-2.4 2-86.2l.2-87.9-2.7-2.3c-4.2-3.4-4.6-3.7-7.8-5.8-1.7-1-3.6-2.4-4.3-3.1-.8-.7-2.3-1.8-3.5-2.4-1.1-.7-2.6-1.6-3.1-2.1-.6-.5-4.7-3.4-9.1-6.6-4.4-3.1-8.6-6.2-9.3-6.9-.7-.7-1.7-1.3-2.1-1.3-.4 0-1.6-.8-2.7-1.8-1-.9-3-2.5-4.4-3.4-1.4-1-5.6-4-9.5-6.8-10.8-7.7-10.3-7.6-10.1-2.7zM24.6 115.1c0 84 .1 87.9 1.9 89.9 1 1.1 2.2 2 2.7 2s1.4.5 2.1 1c1.8 1.6 8.2 6.3 10.7 8 1.2.8 4.7 3.3 7.8 5.6 3.2 2.2 6.7 4.6 8 5.3l2.2 1.2V52.2l-3.2-2.1C55 49 52.1 47 50.4 45.8c-1.7-1.3-4.4-3.2-6-4.3-1.6-1.1-3.8-2.8-4.8-3.7-1.1-1-2.3-1.8-2.7-1.8-.4 0-1.4-.6-2.1-1.3-.7-.7-3.3-2.7-5.8-4.4l-4.5-3.1.1 87.9z"/><path d="M82.8 29.2c-.2.7-.3 40.2-.3 87.8l.1 86.5 11.4 8.2c6.3 4.5 12 8.6 12.5 9 .6.5 2.6 2 4.5 3.3 1.9 1.3 4.1 3 4.8 3.7.7.7 1.7 1.3 2.2 1.3.5 0 1.5.6 2.2 1.3.7.7 4.5 3.5 8.3 6.2 8.5 6 15.1 10.9 18.5 13.5 3.6 2.8 4 2.5 4-2.3 0-4.3-.1-4.4-8.2-10.2-4.6-3.2-8.5-6.1-8.8-6.4-.3-.3-1.2-1.1-2.1-1.6-.9-.6-4.4-3-7.8-5.4l-6.1-4.5v-83.2c0-71.2-.2-83.4-1.4-84.6-.8-.7-3-2.3-4.8-3.6-1.8-1.3-6.5-4.7-10.4-7.5-3.9-2.9-9-6.6-11.5-8.2-2.4-1.7-4.5-3.3-4.7-3.8-.6-1.1-1.9-.8-2.4.5z"/></svg>